<svg width="40" height="26" viewBox="0 0 40 26" fill="none" xmlns="http://www.w3.org/2000/svg">
<g id="00">
<mask id="path-1-outside-1_54_4" maskUnits="userSpaceOnUse" x="-0.5" y="-0.580078" width="41" height="27" fill="black">
<rect fill="white" x="-0.5" y="-0.580078" width="41" height="27"/>
<path d="M10.22 23.8399C7.74 23.8399 5.75 23.1599 4.25 21.7999C2.75 20.4199 2 18.3399 2 15.5599V10.2799C2 7.57992 2.75 5.52992 4.25 4.12992C5.75 2.70992 7.74 1.99992 10.22 1.99992C12.72 1.99992 14.71 2.70992 16.19 4.12992C17.69 5.52992 18.44 7.57992 18.44 10.2799V15.5599C18.44 18.3399 17.69 20.4199 16.19 21.7999C14.71 23.1599 12.72 23.8399 10.22 23.8399ZM10.22 20.4199C11.72 20.4199 12.82 20.0099 13.52 19.1899C14.24 18.3699 14.6 17.1999 14.6 15.6799V10.0999C14.6 8.55992 14.2 7.39992 13.4 6.61992C12.62 5.81992 11.56 5.41992 10.22 5.41992C8.84 5.41992 7.76 5.82992 6.98 6.64992C6.22 7.46992 5.84 8.61992 5.84 10.0999V15.6799C5.84 17.2599 6.2 18.4499 6.92 19.2499C7.66 20.0299 8.76 20.4199 10.22 20.4199ZM29.6731 23.8399C27.1931 23.8399 25.2031 23.1599 23.7031 21.7999C22.2031 20.4199 21.4531 18.3399 21.4531 15.5599V10.2799C21.4531 7.57992 22.2031 5.52992 23.7031 4.12992C25.2031 2.70992 27.1931 1.99992 29.6731 1.99992C32.1731 1.99992 34.1631 2.70992 35.6431 4.12992C37.1431 5.52992 37.8931 7.57992 37.8931 10.2799V15.5599C37.8931 18.3399 37.1431 20.4199 35.6431 21.7999C34.1631 23.1599 32.1731 23.8399 29.6731 23.8399ZM29.6731 20.4199C31.1731 20.4199 32.2731 20.0099 32.9731 19.1899C33.6931 18.3699 34.0531 17.1999 34.0531 15.6799V10.0999C34.0531 8.55992 33.6531 7.39992 32.8531 6.61992C32.0731 5.81992 31.0131 5.41992 29.6731 5.41992C28.2931 5.41992 27.2131 5.82992 26.4331 6.64992C25.6731 7.46992 25.2931 8.61992 25.2931 10.0999V15.6799C25.2931 17.2599 25.6531 18.4499 26.3731 19.2499C27.1131 20.0299 28.2131 20.4199 29.6731 20.4199Z"/>
</mask>
<path d="M10.22 23.8399C7.74 23.8399 5.75 23.1599 4.25 21.7999C2.75 20.4199 2 18.3399 2 15.5599V10.2799C2 7.57992 2.75 5.52992 4.25 4.12992C5.75 2.70992 7.74 1.99992 10.22 1.99992C12.72 1.99992 14.71 2.70992 16.19 4.12992C17.69 5.52992 18.44 7.57992 18.44 10.2799V15.5599C18.44 18.3399 17.69 20.4199 16.19 21.7999C14.71 23.1599 12.72 23.8399 10.22 23.8399ZM10.22 20.4199C11.72 20.4199 12.82 20.0099 13.52 19.1899C14.24 18.3699 14.6 17.1999 14.6 15.6799V10.0999C14.6 8.55992 14.2 7.39992 13.4 6.61992C12.62 5.81992 11.56 5.41992 10.22 5.41992C8.84 5.41992 7.76 5.82992 6.98 6.64992C6.22 7.46992 5.84 8.61992 5.84 10.0999V15.6799C5.84 17.2599 6.2 18.4499 6.92 19.2499C7.66 20.0299 8.76 20.4199 10.22 20.4199ZM29.6731 23.8399C27.1931 23.8399 25.2031 23.1599 23.7031 21.7999C22.2031 20.4199 21.4531 18.3399 21.4531 15.5599V10.2799C21.4531 7.57992 22.2031 5.52992 23.7031 4.12992C25.2031 2.70992 27.1931 1.99992 29.6731 1.99992C32.1731 1.99992 34.1631 2.70992 35.6431 4.12992C37.1431 5.52992 37.8931 7.57992 37.8931 10.2799V15.5599C37.8931 18.3399 37.1431 20.4199 35.6431 21.7999C34.1631 23.1599 32.1731 23.8399 29.6731 23.8399ZM29.6731 20.4199C31.1731 20.4199 32.2731 20.0099 32.9731 19.1899C33.6931 18.3699 34.0531 17.1999 34.0531 15.6799V10.0999C34.0531 8.55992 33.6531 7.39992 32.8531 6.61992C32.0731 5.81992 31.0131 5.41992 29.6731 5.41992C28.2931 5.41992 27.2131 5.82992 26.4331 6.64992C25.6731 7.46992 25.2931 8.61992 25.2931 10.0999V15.6799C25.2931 17.2599 25.6531 18.4499 26.3731 19.2499C27.1131 20.0299 28.2131 20.4199 29.6731 20.4199Z" fill="#363E46"/>
<path d="M4.25 21.7999L2.89589 23.2718C2.89945 23.2751 2.90303 23.2783 2.90662 23.2816L4.25 21.7999ZM4.25 4.12992L5.61464 5.59203C5.61809 5.58881 5.62153 5.58558 5.62495 5.58233L4.25 4.12992ZM16.19 4.12992L14.8053 5.57309C14.812 5.57945 14.8186 5.58576 14.8254 5.59203L16.19 4.12992ZM16.19 21.7999L17.5433 23.2726L17.5441 23.2718L16.19 21.7999ZM13.52 19.1899L12.0171 17.8703C12.011 17.8773 12.0049 17.8843 11.9989 17.8914L13.52 19.1899ZM13.4 6.61992L11.968 8.01612C11.9798 8.02821 11.9917 8.04014 12.0038 8.05192L13.4 6.61992ZM6.98 6.64992L5.53088 5.27149C5.52493 5.27775 5.51901 5.28405 5.51314 5.29039L6.98 6.64992ZM6.92 19.2499L5.43341 20.5879C5.44513 20.6009 5.45702 20.6137 5.46907 20.6264L6.92 19.2499ZM10.22 23.8399V21.8399C8.11962 21.8399 6.64713 21.2737 5.59338 20.3183L4.25 21.7999L2.90662 23.2816C4.85287 25.0462 7.36038 25.8399 10.22 25.8399V23.8399ZM4.25 21.7999L5.60411 20.3281C4.64911 19.4495 4 17.9919 4 15.5599H2H2.98023e-08C2.98023e-08 18.6879 0.850895 21.3904 2.89589 23.2718L4.25 21.7999ZM2 15.5599H4V10.2799H2H2.98023e-08V15.5599H2ZM2 10.2799H4C4 7.95052 4.63711 6.50439 5.61464 5.59203L4.25 4.12992L2.88536 2.66781C0.86289 4.55545 2.98023e-08 7.20933 2.98023e-08 10.2799H2ZM4.25 4.12992L5.62495 5.58233C6.68132 4.58231 8.14256 3.99992 10.22 3.99992V1.99992V-8.01086e-05C7.33744 -8.01086e-05 4.81868 0.837532 2.87505 2.67751L4.25 4.12992ZM10.22 1.99992V3.99992C12.3234 3.99992 13.7759 4.58539 14.8053 5.57309L16.19 4.12992L17.5747 2.68676C15.6441 0.834448 13.1166 -8.01086e-05 10.22 -8.01086e-05V1.99992ZM16.19 4.12992L14.8254 5.59203C15.8029 6.50439 16.44 7.95052 16.44 10.2799H18.44H20.44C20.44 7.20933 19.5771 4.55545 17.5546 2.66781L16.19 4.12992ZM18.44 10.2799H16.44V15.5599H18.44H20.44V10.2799H18.44ZM18.44 15.5599H16.44C16.44 17.9919 15.7909 19.4495 14.8359 20.3281L16.19 21.7999L17.5441 23.2718C19.5891 21.3904 20.44 18.6879 20.44 15.5599H18.44ZM16.19 21.7999L14.8367 20.3273C13.8101 21.2707 12.3464 21.8399 10.22 21.8399V23.8399V25.8399C13.0936 25.8399 15.6099 25.0492 17.5433 23.2726L16.19 21.7999ZM10.22 20.4199V22.4199C12.0662 22.4199 13.8294 21.9079 15.0411 20.4884L13.52 19.1899L11.9989 17.8914C11.8106 18.1119 11.3738 18.4199 10.22 18.4199V20.4199ZM13.52 19.1899L15.0229 20.5095C16.1699 19.2032 16.6 17.4952 16.6 15.6799H14.6H12.6C12.6 16.9046 12.3101 17.5366 12.0171 17.8703L13.52 19.1899ZM14.6 15.6799H16.6V10.0999H14.6H12.6V15.6799H14.6ZM14.6 10.0999H16.6C16.6 8.22976 16.1099 6.4688 14.7962 5.18792L13.4 6.61992L12.0038 8.05192C12.2901 8.33104 12.6 8.89008 12.6 10.0999H14.6ZM13.4 6.61992L14.832 5.22372C13.6019 3.96211 11.9837 3.41992 10.22 3.41992V5.41992V7.41992C11.1363 7.41992 11.6381 7.67773 11.968 8.01612L13.4 6.61992ZM10.22 5.41992V3.41992C8.42121 3.41992 6.76895 3.96994 5.53088 5.27149L6.98 6.64992L8.42912 8.02835C8.75105 7.6899 9.25879 7.41992 10.22 7.41992V5.41992ZM6.98 6.64992L5.51314 5.29039C4.31159 6.5868 3.84 8.28289 3.84 10.0999H5.84H7.84C7.84 8.95696 8.12841 8.35304 8.44686 8.00945L6.98 6.64992ZM5.84 10.0999H3.84V15.6799H5.84H7.84V10.0999H5.84ZM5.84 15.6799H3.84C3.84 17.5271 4.25735 19.2811 5.43341 20.5879L6.92 19.2499L8.40659 17.912C8.14266 17.6187 7.84 16.9928 7.84 15.6799H5.84ZM6.92 19.2499L5.46907 20.6264C6.70688 21.9312 8.41455 22.4199 10.22 22.4199V20.4199V18.4199C9.10545 18.4199 8.61312 18.1287 8.37093 17.8734L6.92 19.2499ZM23.7031 21.7999L22.349 23.2718C22.3526 23.2751 22.3562 23.2783 22.3597 23.2816L23.7031 21.7999ZM23.7031 4.12992L25.0678 5.59203C25.0712 5.58881 25.0746 5.58558 25.0781 5.58233L23.7031 4.12992ZM35.6431 4.12992L34.2585 5.57309C34.2651 5.57945 34.2718 5.58576 34.2785 5.59203L35.6431 4.12992ZM35.6431 21.7999L36.9964 23.2726L36.9972 23.2718L35.6431 21.7999ZM32.9731 19.1899L31.4702 17.8703C31.4641 17.8773 31.458 17.8843 31.452 17.8914L32.9731 19.1899ZM32.8531 6.61992L31.4211 8.01612C31.4329 8.02821 31.4448 8.04014 31.4569 8.05192L32.8531 6.61992ZM26.4331 6.64992L24.984 5.27149C24.9781 5.27775 24.9721 5.28405 24.9663 5.29039L26.4331 6.64992ZM26.3731 19.2499L24.8865 20.5879C24.8983 20.6009 24.9101 20.6137 24.9222 20.6264L26.3731 19.2499ZM29.6731 23.8399V21.8399C27.5727 21.8399 26.1003 21.2737 25.0465 20.3183L23.7031 21.7999L22.3597 23.2816C24.306 25.0462 26.8135 25.8399 29.6731 25.8399V23.8399ZM23.7031 21.7999L25.0572 20.3281C24.1022 19.4495 23.4531 17.9919 23.4531 15.5599H21.4531H19.4531C19.4531 18.6879 20.304 21.3904 22.349 23.2718L23.7031 21.7999ZM21.4531 15.5599H23.4531V10.2799H21.4531H19.4531V15.5599H21.4531ZM21.4531 10.2799H23.4531C23.4531 7.95052 24.0902 6.50439 25.0678 5.59203L23.7031 4.12992L22.3385 2.66781C20.316 4.55545 19.4531 7.20933 19.4531 10.2799H21.4531ZM23.7031 4.12992L25.0781 5.58233C26.1344 4.58231 27.5957 3.99992 29.6731 3.99992V1.99992V-8.01086e-05C26.7906 -8.01086e-05 24.2718 0.837532 22.3282 2.67751L23.7031 4.12992ZM29.6731 1.99992V3.99992C31.7766 3.99992 33.229 4.58539 34.2585 5.57309L35.6431 4.12992L37.0278 2.68676C35.0972 0.834448 32.5697 -8.01086e-05 29.6731 -8.01086e-05V1.99992ZM35.6431 4.12992L34.2785 5.59203C35.256 6.50439 35.8931 7.95052 35.8931 10.2799H37.8931H39.8931C39.8931 7.20933 39.0302 4.55545 37.0078 2.66781L35.6431 4.12992ZM37.8931 10.2799H35.8931V15.5599H37.8931H39.8931V10.2799H37.8931ZM37.8931 15.5599H35.8931C35.8931 17.9919 35.244 19.4495 34.289 20.3281L35.6431 21.7999L36.9972 23.2718C39.0422 21.3904 39.8931 18.6879 39.8931 15.5599H37.8931ZM35.6431 21.7999L34.2899 20.3273C33.2632 21.2707 31.7995 21.8399 29.6731 21.8399V23.8399V25.8399C32.5467 25.8399 35.063 25.0492 36.9964 23.2726L35.6431 21.7999ZM29.6731 20.4199V22.4199C31.5194 22.4199 33.2825 21.9079 34.4943 20.4884L32.9731 19.1899L31.452 17.8914C31.2637 18.1119 30.8269 18.4199 29.6731 18.4199V20.4199ZM32.9731 19.1899L34.476 20.5095C35.623 19.2032 36.0531 17.4952 36.0531 15.6799H34.0531H32.0531C32.0531 16.9046 31.7633 17.5366 31.4702 17.8703L32.9731 19.1899ZM34.0531 15.6799H36.0531V10.0999H34.0531H32.0531V15.6799H34.0531ZM34.0531 10.0999H36.0531C36.0531 8.22976 35.563 6.4688 34.2493 5.18792L32.8531 6.61992L31.4569 8.05192C31.7432 8.33104 32.0531 8.89008 32.0531 10.0999H34.0531ZM32.8531 6.61992L34.2851 5.22372C33.0551 3.96211 31.4368 3.41992 29.6731 3.41992V5.41992V7.41992C30.5894 7.41992 31.0912 7.67773 31.4211 8.01612L32.8531 6.61992ZM29.6731 5.41992V3.41992C27.8743 3.41992 26.2221 3.96994 24.984 5.27149L26.4331 6.64992L27.8822 8.02835C28.2042 7.6899 28.7119 7.41992 29.6731 7.41992V5.41992ZM26.4331 6.64992L24.9663 5.29039C23.7647 6.5868 23.2931 8.28289 23.2931 10.0999H25.2931H27.2931C27.2931 8.95696 27.5815 8.35304 27.9 8.00945L26.4331 6.64992ZM25.2931 10.0999H23.2931V15.6799H25.2931H27.2931V10.0999H25.2931ZM25.2931 15.6799H23.2931C23.2931 17.5271 23.7105 19.2811 24.8865 20.5879L26.3731 19.2499L27.8597 17.912C27.5958 17.6187 27.2931 16.9928 27.2931 15.6799H25.2931ZM26.3731 19.2499L24.9222 20.6264C26.16 21.9312 27.8677 22.4199 29.6731 22.4199V20.4199V18.4199C28.5586 18.4199 28.0662 18.1287 27.8241 17.8734L26.3731 19.2499Z" fill="white" mask="url(#path-1-outside-1_54_4)"/>
</g>
</svg>
