<svg width="861" height="869" viewBox="0 0 861 869" fill="none" xmlns="http://www.w3.org/2000/svg">
  <!-- 
    6D-Watch - Reloj Geométrico Astronómico
    Versión Reconstruida - Estructura Limpia
    
    GRUPOS PRINCIPALES:
    - g#fondo: Círculo dorado exterior con efectos de sombra/glow
    - g#disco-base: Disco negro base con líneas radiales
    - g#anillo-horas: Anillo de 24 colores (horas del día)
    - g#disco-central: Disco central negro
    - g#yin-yang: Símbolo yin-yang con indicador
    - g#fase-lunar: Contenedor de la fase lunar (intercambiable)
    - g#numeros: Números de las horas alrededor del anillo
  -->

  <defs>
    <!-- FILTROS DE SOMBRA/GLOW -->
    <filter id="shadow-outer" x="0" y="0" width="860.683" height="868.641" filterUnits="userSpaceOnUse" color-interpolation-filters="sRGB">
      <feFlood flood-opacity="0" result="BackgroundImageFix"/>
      <feColorMatrix in="SourceAlpha" type="matrix" values="0 0 0 0 0 0 0 0 0 0 0 0 0 0 0 0 0 0 127 0" result="hardAlpha"/>
      <feMorphology radius="8.65767" operator="erode" in="SourceAlpha" result="effect1_dropShadow"/>
      <feOffset dx="18.7583" dy="20.2012"/>
      <feGaussianBlur stdDeviation="8.65767"/>
      <feColorMatrix type="matrix" values="0 0 0 0 0.137255 0 0 0 0 0.156863 0 0 0 0 0.176471 0 0 0 0.5 0"/>
      <feBlend mode="normal" in2="BackgroundImageFix" result="effect1_dropShadow"/>
      <feColorMatrix in="SourceAlpha" type="matrix" values="0 0 0 0 0 0 0 0 0 0 0 0 0 0 0 0 0 0 127 0" result="hardAlpha"/>
      <feOffset dx="-28.8589" dy="-28.8589"/>
      <feGaussianBlur stdDeviation="44.0098"/>
      <feColorMatrix type="matrix" values="0 0 0 0 0.282353 0 0 0 0 0.32549 0 0 0 0 0.360784 0 0 0 0.25 0"/>
      <feBlend mode="normal" in2="effect1_dropShadow" result="effect2_dropShadow"/>
      <feColorMatrix in="SourceAlpha" type="matrix" values="0 0 0 0 0 0 0 0 0 0 0 0 0 0 0 0 0 0 127 0" result="hardAlpha"/>
      <feMorphology radius="46.1742" operator="erode" in="SourceAlpha" result="effect3_dropShadow"/>
      <feOffset dx="27.4159" dy="36.0736"/>
      <feGaussianBlur stdDeviation="66.3755"/>
      <feColorMatrix type="matrix" values="0 0 0 0 0.137255 0 0 0 0 0.156863 0 0 0 0 0.176471 0 0 0 0.35 0"/>
      <feBlend mode="normal" in2="effect2_dropShadow" result="effect3_dropShadow"/>
      <feBlend mode="normal" in="SourceGraphic" in2="effect3_dropShadow" result="shape"/>
    </filter>

    <filter id="shadow-ring" x="0" y="0" width="859.859" height="867.815" filterUnits="userSpaceOnUse" color-interpolation-filters="sRGB">
      <feFlood flood-opacity="0" result="BackgroundImageFix"/>
      <feColorMatrix in="SourceAlpha" type="matrix" values="0 0 0 0 0 0 0 0 0 0 0 0 0 0 0 0 0 0 127 0" result="hardAlpha"/>
      <feMorphology radius="8.65767" operator="erode" in="SourceAlpha" result="effect1_dropShadow"/>
      <feOffset dx="18.7583" dy="20.2012"/>
      <feGaussianBlur stdDeviation="8.65767"/>
      <feColorMatrix type="matrix" values="0 0 0 0 0.137255 0 0 0 0 0.156863 0 0 0 0 0.176471 0 0 0 0.5 0"/>
      <feBlend mode="normal" in2="BackgroundImageFix" result="effect1_dropShadow"/>
      <feColorMatrix in="SourceAlpha" type="matrix" values="0 0 0 0 0 0 0 0 0 0 0 0 0 0 0 0 0 0 127 0" result="hardAlpha"/>
      <feOffset dx="-28.8589" dy="-28.8589"/>
      <feGaussianBlur stdDeviation="44.0098"/>
      <feColorMatrix type="matrix" values="0 0 0 0 0.282353 0 0 0 0 0.32549 0 0 0 0 0.360784 0 0 0 0.25 0"/>
      <feBlend mode="normal" in2="effect1_dropShadow" result="effect2_dropShadow"/>
      <feColorMatrix in="SourceAlpha" type="matrix" values="0 0 0 0 0 0 0 0 0 0 0 0 0 0 0 0 0 0 127 0" result="hardAlpha"/>
      <feMorphology radius="46.1742" operator="erode" in="SourceAlpha" result="effect3_dropShadow"/>
      <feOffset dx="27.4159" dy="36.0736"/>
      <feGaussianBlur stdDeviation="66.3755"/>
      <feColorMatrix type="matrix" values="0 0 0 0 0.137255 0 0 0 0 0.156863 0 0 0 0 0.176471 0 0 0 0.35 0"/>
      <feBlend mode="normal" in2="effect2_dropShadow" result="effect3_dropShadow"/>
      <feBlend mode="normal" in="SourceGraphic" in2="effect3_dropShadow" result="shape"/>
    </filter>

    <filter id="inner-shadow-disc" x="186.745" y="184.202" width="491.855" height="493.046" filterUnits="userSpaceOnUse" color-interpolation-filters="sRGB">
      <feFlood flood-opacity="0" result="BackgroundImageFix"/>
      <feBlend mode="normal" in="SourceGraphic" in2="BackgroundImageFix" result="shape"/>
      <feColorMatrix in="SourceAlpha" type="matrix" values="0 0 0 0 0 0 0 0 0 0 0 0 0 0 0 0 0 0 127 0" result="hardAlpha"/>
      <feOffset dx="11.9172" dy="13.109"/>
      <feGaussianBlur stdDeviation="17.8759"/>
      <feComposite in2="hardAlpha" operator="arithmetic" k2="-1" k3="1"/>
      <feColorMatrix type="matrix" values="0 0 0 0 0.137255 0 0 0 0 0.156863 0 0 0 0 0.176471 0 0 0 0.5 0"/>
      <feBlend mode="normal" in2="shape" result="effect1_innerShadow"/>
      <feColorMatrix in="SourceAlpha" type="matrix" values="0 0 0 0 0 0 0 0 0 0 0 0 0 0 0 0 0 0 127 0" result="hardAlpha"/>
      <feOffset dx="8.34207" dy="8.34207"/>
      <feGaussianBlur stdDeviation="4.7669"/>
      <feComposite in2="hardAlpha" operator="arithmetic" k2="-1" k3="1"/>
      <feColorMatrix type="matrix" values="0 0 0 0 0.137255 0 0 0 0 0.156863 0 0 0 0 0.176471 0 0 0 0.25 0"/>
      <feBlend mode="normal" in2="effect1_innerShadow" result="effect2_innerShadow"/>
      <feColorMatrix in="SourceAlpha" type="matrix" values="0 0 0 0 0 0 0 0 0 0 0 0 0 0 0 0 0 0 127 0" result="hardAlpha"/>
      <feOffset dx="-14.3007" dy="-14.3007"/>
      <feGaussianBlur stdDeviation="17.8759"/>
      <feComposite in2="hardAlpha" operator="arithmetic" k2="-1" k3="1"/>
      <feColorMatrix type="matrix" values="0 0 0 0 0.282353 0 0 0 0 0.32549 0 0 0 0 0.360784 0 0 0 0.3 0"/>
      <feBlend mode="normal" in2="effect2_innerShadow" result="effect3_innerShadow"/>
    </filter>

    <filter id="inner-shadow-indicator" x="385.503" y="283.918" width="87.0157" height="117.35" filterUnits="userSpaceOnUse" color-interpolation-filters="sRGB">
      <feFlood flood-opacity="0" result="BackgroundImageFix"/>
      <feBlend mode="normal" in="SourceGraphic" in2="BackgroundImageFix" result="shape"/>
      <feColorMatrix in="SourceAlpha" type="matrix" values="0 0 0 0 0 0 0 0 0 0 0 0 0 0 0 0 0 0 127 0" result="hardAlpha"/>
      <feOffset dx="11.9172" dy="13.109"/>
      <feGaussianBlur stdDeviation="17.8759"/>
      <feComposite in2="hardAlpha" operator="arithmetic" k2="-1" k3="1"/>
      <feColorMatrix type="matrix" values="0 0 0 0 0.137255 0 0 0 0 0.156863 0 0 0 0 0.176471 0 0 0 0.5 0"/>
      <feBlend mode="normal" in2="shape" result="effect1_innerShadow"/>
      <feColorMatrix in="SourceAlpha" type="matrix" values="0 0 0 0 0 0 0 0 0 0 0 0 0 0 0 0 0 0 127 0" result="hardAlpha"/>
      <feOffset dx="8.34207" dy="8.34207"/>
      <feGaussianBlur stdDeviation="4.7669"/>
      <feComposite in2="hardAlpha" operator="arithmetic" k2="-1" k3="1"/>
      <feColorMatrix type="matrix" values="0 0 0 0 0.137255 0 0 0 0 0.156863 0 0 0 0 0.176471 0 0 0 0.25 0"/>
      <feBlend mode="normal" in2="effect1_innerShadow" result="effect2_innerShadow"/>
      <feColorMatrix in="SourceAlpha" type="matrix" values="0 0 0 0 0 0 0 0 0 0 0 0 0 0 0 0 0 0 127 0" result="hardAlpha"/>
      <feOffset dx="-14.3007" dy="-14.3007"/>
      <feGaussianBlur stdDeviation="17.8759"/>
      <feComposite in2="hardAlpha" operator="arithmetic" k2="-1" k3="1"/>
      <feColorMatrix type="matrix" values="0 0 0 0 0.282353 0 0 0 0 0.32549 0 0 0 0 0.360784 0 0 0 0.3 0"/>
      <feBlend mode="normal" in2="effect2_innerShadow" result="effect3_innerShadow"/>
    </filter>

    <filter id="inner-shadow-moon-container" x="392.57" y="454.644" width="83.7685" height="84.9602" filterUnits="userSpaceOnUse" color-interpolation-filters="sRGB">
      <feFlood flood-opacity="0" result="BackgroundImageFix"/>
      <feBlend mode="normal" in="SourceGraphic" in2="BackgroundImageFix" result="shape"/>
      <feColorMatrix in="SourceAlpha" type="matrix" values="0 0 0 0 0 0 0 0 0 0 0 0 0 0 0 0 0 0 127 0" result="hardAlpha"/>
      <feMorphology radius="1.19172" operator="dilate" in="SourceAlpha" result="effect1_innerShadow"/>
      <feOffset dx="11.9172" dy="13.109"/>
      <feGaussianBlur stdDeviation="17.8759"/>
      <feComposite in2="hardAlpha" operator="arithmetic" k2="-1" k3="1"/>
      <feColorMatrix type="matrix" values="0 0 0 0 0.137255 0 0 0 0 0.156863 0 0 0 0 0.176471 0 0 0 0.5 0"/>
      <feBlend mode="normal" in2="shape" result="effect1_innerShadow"/>
      <feColorMatrix in="SourceAlpha" type="matrix" values="0 0 0 0 0 0 0 0 0 0 0 0 0 0 0 0 0 0 127 0" result="hardAlpha"/>
      <feOffset dx="8.34207" dy="8.34207"/>
      <feGaussianBlur stdDeviation="4.7669"/>
      <feComposite in2="hardAlpha" operator="arithmetic" k2="-1" k3="1"/>
      <feColorMatrix type="matrix" values="0 0 0 0 0.137255 0 0 0 0 0.156863 0 0 0 0 0.176471 0 0 0 0.25 0"/>
      <feBlend mode="normal" in2="effect1_innerShadow" result="effect2_innerShadow"/>
      <feColorMatrix in="SourceAlpha" type="matrix" values="0 0 0 0 0 0 0 0 0 0 0 0 0 0 0 0 0 0 127 0" result="hardAlpha"/>
      <feOffset dx="-14.3007" dy="-14.3007"/>
      <feGaussianBlur stdDeviation="17.8759"/>
      <feComposite in2="hardAlpha" operator="arithmetic" k2="-1" k3="1"/>
      <feColorMatrix type="matrix" values="0 0 0 0 0.282353 0 0 0 0 0.32549 0 0 0 0 0.360784 0 0 0 0.3 0"/>
      <feBlend mode="normal" in2="effect2_innerShadow" result="effect3_innerShadow"/>
    </filter>

    <filter id="inner-shadow-moon" x="410.416" y="451.362" width="68.3575" height="91.2504" filterUnits="userSpaceOnUse" color-interpolation-filters="sRGB">
      <feFlood flood-opacity="0" result="BackgroundImageFix"/>
      <feBlend mode="normal" in="SourceGraphic" in2="BackgroundImageFix" result="shape"/>
      <feColorMatrix in="SourceAlpha" type="matrix" values="0 0 0 0 0 0 0 0 0 0 0 0 0 0 0 0 0 0 127 0" result="hardAlpha"/>
      <feOffset dx="14.652" dy="16.1172"/>
      <feGaussianBlur stdDeviation="21.978"/>
      <feComposite in2="hardAlpha" operator="arithmetic" k2="-1" k3="1"/>
      <feColorMatrix type="matrix" values="0 0 0 0 0.65098 0 0 0 0 0.705882 0 0 0 0 0.784314 0 0 0 0.71 0"/>
      <feBlend mode="normal" in2="shape" result="effect1_innerShadow"/>
      <feColorMatrix in="SourceAlpha" type="matrix" values="0 0 0 0 0 0 0 0 0 0 0 0 0 0 0 0 0 0 127 0" result="hardAlpha"/>
      <feOffset dx="10.2564" dy="10.2564"/>
      <feGaussianBlur stdDeviation="5.86081"/>
      <feComposite in2="hardAlpha" operator="arithmetic" k2="-1" k3="1"/>
      <feColorMatrix type="matrix" values="0 0 0 0 0.65098 0 0 0 0 0.705882 0 0 0 0 0.784314 0 0 0 0.52 0"/>
      <feBlend mode="normal" in2="effect1_innerShadow" result="effect2_innerShadow"/>
      <feColorMatrix in="SourceAlpha" type="matrix" values="0 0 0 0 0 0 0 0 0 0 0 0 0 0 0 0 0 0 127 0" result="hardAlpha"/>
      <feOffset dx="-17.5824" dy="-17.5824"/>
      <feGaussianBlur stdDeviation="21.978"/>
      <feComposite in2="hardAlpha" operator="arithmetic" k2="-1" k3="1"/>
      <feColorMatrix type="matrix" values="0 0 0 0 1 0 0 0 0 1 0 0 0 0 1 0 0 0 0.2 0"/>
      <feBlend mode="normal" in2="effect2_innerShadow" result="effect3_innerShadow"/>
    </filter>

    <!-- GRADIENTES -->
    <linearGradient id="grad-gold-outer" x1="141.791" y1="155.745" x2="714.307" y2="711.818" gradientUnits="userSpaceOnUse">
      <stop offset="0.0001" stop-color="#FFED79"/>
      <stop offset="1" stop-color="#A66C45"/>
    </linearGradient>

    <linearGradient id="grad-gold-edge" x1="260.561" y1="253.559" x2="694.026" y2="744.704" gradientUnits="userSpaceOnUse">
      <stop stop-color="#FFECD5"/>
      <stop offset="0.34134" stop-color="#D2AD5F"/>
      <stop offset="0.875015" stop-color="#4A3023"/>
    </linearGradient>

    <linearGradient id="grad-disc-base" x1="152.922" y1="165.332" x2="704.624" y2="701.189" gradientUnits="userSpaceOnUse">
      <stop offset="0.0001" stop-color="#3E464F"/>
      <stop offset="1" stop-color="#424A53"/>
    </linearGradient>

    <linearGradient id="grad-disc-stroke" x1="267.374" y1="259.59" x2="710.386" y2="715.594" gradientUnits="userSpaceOnUse">
      <stop stop-color="#5D666D"/>
      <stop offset="0.859375" stop-color="#232A30"/>
    </linearGradient>

    <linearGradient id="grad-ring-gold" x1="144.126" y1="156.031" x2="712.859" y2="706.55" gradientUnits="userSpaceOnUse">
      <stop offset="0.0001" stop-color="#FFED79"/>
      <stop offset="1" stop-color="#A66C45"/>
    </linearGradient>

    <linearGradient id="grad-central-disc" x1="460.683" y1="-575.066" x2="1165.13" y2="1215.95" gradientUnits="userSpaceOnUse">
      <stop stop-color="#363E46"/>
      <stop offset="1" stop-color="#2C343C"/>
    </linearGradient>

    <linearGradient id="grad-central-stroke" x1="612.621" y1="-89.136" x2="325.236" y2="-369.245" gradientUnits="userSpaceOnUse">
      <stop stop-color="#5D666D"/>
      <stop offset="1" stop-color="#232A30"/>
    </linearGradient>

    <linearGradient id="grad-yin-light" x1="443.119" y1="464.945" x2="442.139" y2="284.944" gradientUnits="userSpaceOnUse">
      <stop stop-color="#FFD864"/>
      <stop offset="1" stop-color="#FFF0C2"/>
    </linearGradient>

    <linearGradient id="grad-yin-dark" x1="379.258" y1="487.454" x2="270.798" y2="223.039" gradientUnits="userSpaceOnUse">
      <stop stop-color="#343C52"/>
      <stop offset="1" stop-color="#4E587D"/>
    </linearGradient>

    <linearGradient id="grad-indicator" x1="561.579" y1="423.75" x2="328.309" y2="-5.30657" gradientUnits="userSpaceOnUse">
      <stop stop-color="#363E46"/>
      <stop offset="1" stop-color="#2C343C"/>
    </linearGradient>

    <linearGradient id="grad-indicator-stroke" x1="408.628" y1="366.004" x2="457.177" y2="340.077" gradientUnits="userSpaceOnUse">
      <stop stop-color="#5D666D"/>
      <stop offset="1" stop-color="#232A30"/>
    </linearGradient>

    <linearGradient id="grad-moon-container" x1="484.465" y1="551.329" x2="263.103" y2="638.396" gradientUnits="userSpaceOnUse">
      <stop stop-color="#363E46"/>
      <stop offset="1" stop-color="#2C343C"/>
    </linearGradient>

    <linearGradient id="grad-moon-container-stroke" x1="424.406" y1="570.108" x2="459.026" y2="534.588" gradientUnits="userSpaceOnUse">
      <stop stop-color="#5D666D"/>
      <stop offset="1" stop-color="#232A30"/>
    </linearGradient>

    <linearGradient id="grad-moon" x1="561.818" y1="542.102" x2="561.818" y2="484.07" gradientUnits="userSpaceOnUse">
      <stop stop-color="#ECEEF3"/>
      <stop offset="1" stop-color="#F1F2F7"/>
    </linearGradient>

    <!-- Gradiente para números dorados -->
    <linearGradient id="grad-number-gold" x1="430" y1="130" x2="430" y2="160" gradientUnits="userSpaceOnUse">
      <stop stop-color="#FFF1B4"/>
      <stop offset="1" stop-color="#FFC259"/>
    </linearGradient>
  
    <!-- ==================== FASES LUNARES REUTILIZABLES ==================== -->
    <defs>
      <symbol id="moon-new" viewBox="0 0 64 64">
        <circle cx="32" cy="32" r="28" fill="#ECEEF3"/>
        <circle cx="32" cy="32" r="28" fill="#2C343C"/>
      </symbol>

      <symbol id="moon-waxing-crescent" viewBox="0 0 64 64">
        <circle cx="32" cy="32" r="28" fill="#ECEEF3"/>
        <circle cx="40" cy="32" r="28" fill="#2C343C"/>
      </symbol>

      <symbol id="moon-first-quarter" viewBox="0 0 64 64">
        <circle cx="32" cy="32" r="28" fill="#ECEEF3"/>
        <rect x="32" y="0" width="32" height="64" fill="#2C343C"/>
      </symbol>

      <symbol id="moon-waxing-gibbous" viewBox="0 0 64 64">
        <circle cx="32" cy="32" r="28" fill="#ECEEF3"/>
        <circle cx="48" cy="32" r="20" fill="#2C343C"/>
      </symbol>

      <symbol id="moon-full" viewBox="0 0 64 64">
        <circle cx="32" cy="32" r="28" fill="#ECEEF3"/>
      </symbol>

      <symbol id="moon-waning-gibbous" viewBox="0 0 64 64">
        <circle cx="32" cy="32" r="28" fill="#ECEEF3"/>
        <circle cx="16" cy="32" r="20" fill="#2C343C"/>
      </symbol>

      <symbol id="moon-last-quarter" viewBox="0 0 64 64">
        <circle cx="32" cy="32" r="28" fill="#ECEEF3"/>
        <rect x="0" y="0" width="32" height="64" fill="#2C343C"/>
      </symbol>

      <symbol id="moon-waning-crescent" viewBox="0 0 64 64">
        <circle cx="32" cy="32" r="28" fill="#ECEEF3"/>
        <circle cx="24" cy="32" r="28" fill="#2C343C"/>
      </symbol>
    </defs>

  </defs>

  <g id="reloj">
    <!-- ==================== FONDO - Círculo dorado exterior ==================== -->
    <g id="fondo" filter="url(#shadow-outer)">
      <path d="M117.874 430.792C117.874 257.423 258.417 116.88 431.786 116.88C605.155 116.88 745.699 257.423 745.699 430.792C745.699 604.161 605.155 744.704 431.786 744.704C258.417 744.704 117.874 604.161 117.874 430.792Z" fill="url(#grad-gold-outer)"/>
      <path d="M431.786 116.88C464.708 116.948 497.528 122.157 528.754 132.383C654.969 172.057 746.908 298.638 744.795 430.792C748.621 597.515 598.332 747.539 431.786 743.499C265.24 747.539 114.952 597.515 118.778 430.792C118.778 430.792 118.778 430.792 118.778 430.792C116.664 298.638 208.604 172.057 334.819 132.383C366.045 122.156 398.864 116.948 431.786 116.88C398.865 116.788 365.994 121.843 334.677 131.948C208.101 171.093 115.167 297.845 116.97 430.792C116.97 430.792 116.97 430.792 116.97 430.792C112.665 598.487 263.915 750.001 431.786 745.91C431.786 745.91 431.786 745.91 431.786 745.91C431.786 745.91 431.786 745.91 431.786 745.91C599.658 750.001 750.908 598.487 746.603 430.792C746.603 430.792 746.603 430.792 746.603 430.792C748.406 297.845 655.472 171.093 528.895 131.948C497.579 121.843 464.708 116.788 431.786 116.88ZM431.786 116.88" fill="url(#grad-gold-edge)"/>
    </g>

    <!-- ==================== DISCO BASE - Negro con líneas radiales ==================== -->
    <g id="disco-base">
      <rect x="130.596" y="128.601" width="603.557" height="603.557" rx="301.779" fill="url(#grad-disc-base)" stroke="url(#grad-disc-stroke)" stroke-width="1.44294"/>
      
      <!-- Iluminación del 12 -->
      <path d="M395.373 126.945H473.373L469.373 162.445H400.373L395.373 126.945Z" fill="#C7C7C7" fill-opacity="0.42"/>
      
      
      <!-- Líneas radiales corregidas y alineadas -->
      <g id="lineas-radiales" stroke="#FFE8A3" stroke-width="1.20542">
        <line x1="431.786" y1="424.756" x2="431.786" y2="135.049" /> <line x1="433.348" y1="424.962" x2="508.330" y2="145.126" /> <line x1="434.804" y1="425.565" x2="579.658" y2="174.671" /> <line x1="436.054" y1="426.524" x2="640.908" y2="221.670" /> <line x1="437.013" y1="427.774" x2="687.907" y2="282.920" /> <line x1="437.616" y1="429.230" x2="717.452" y2="354.248" /> <line x1="437.822" y1="430.792" x2="727.529" y2="430.792" /> <line x1="437.616" y1="432.354" x2="717.452" y2="507.336" /> <line x1="437.013" y1="433.810" x2="687.907" y2="578.664" /> <line x1="436.054" y1="435.060" x2="640.908" y2="639.914" /> <line x1="434.804" y1="436.019" x2="579.658" y2="686.913" /> <line x1="433.348" y1="436.622" x2="508.330" y2="716.458" /> <line x1="431.786" y1="436.828" x2="431.786" y2="726.535" /> <line x1="430.224" y1="436.622" x2="355.242" y2="716.458" /> <line x1="428.768" y1="436.019" x2="283.914" y2="686.913" /> <line x1="427.518" y1="435.060" x2="222.664" y2="639.914" /> <line x1="426.559" y1="433.810" x2="175.665" y2="578.664" /> <line x1="425.956" y1="432.354" x2="146.120" y2="507.336" /> <line x1="425.750" y1="430.792" x2="136.043" y2="430.792" /> <line x1="425.956" y1="429.230" x2="146.120" y2="354.248" /> <line x1="426.559" y1="427.774" x2="175.665" y2="282.920" /> <line x1="427.518" y1="426.524" x2="222.664" y2="221.670" /> <line x1="428.768" y1="425.565" x2="283.914" y2="174.671" /> <line x1="430.224" y1="424.962" x2="355.242" y2="145.126" />
      </g>

    </g>

    <!-- ==================== ANILLO DORADO DE SOMBRA ==================== -->
    <g id="anillo-sombra" filter="url(#shadow-ring)">
      <path fill-rule="evenodd" clip-rule="evenodd" d="M432.913 116.88C465.276 116.947 497.567 121.994 528.354 131.928C654.764 171.021 747.577 297.607 745.777 430.38C750.076 597.855 599.025 749.17 431.372 745.085C263.72 749.17 112.669 597.855 116.968 430.38C115.167 297.607 207.98 171.021 334.391 131.928C365.178 121.994 397.469 116.947 429.831 116.88L432.913 116.88ZM426.23 129.535C263.661 129.535 131.873 261.323 131.873 423.891L131.873 434.178C131.873 596.747 263.661 728.535 426.23 728.535L436.518 728.535C599.086 728.535 730.873 596.747 730.873 434.179L730.873 423.891C730.873 261.323 599.086 129.535 436.518 129.535L426.23 129.535Z" fill="url(#grad-ring-gold)"/>
    </g>

    <!-- ==================== ANILLO DE 24 COLORES (HORAS) ==================== -->
    <g id="anillo-horas">
      <!-- Capa exterior (colores saturados) -->
      <g id="horas-exterior">
        <path d="M431.517 427.898L181.733 534.804C172.384 512.599 166.004 489.354 162.677 465.681L431.517 427.898Z" fill="#C72225"/>
        <path d="M431.517 427.898L162.677 465.681C159.349 442.007 159.076 417.904 161.941 393.983L431.517 427.898Z" fill="#D1422D"/>
        <path d="M431.621 427.76L538.132 680.757C516.209 690.14 493.249 696.517 469.854 699.805L431.621 427.76Z" fill="#535EDD"/>
        <path d="M431.621 427.759L469.854 699.805C446.46 703.093 422.631 703.291 398.971 700.314L431.621 427.759Z" fill="#6A52B9"/>
        <path d="M431.62 427.759L398.97 700.314C375.212 697.325 352.044 691.187 330.038 682.137L431.62 427.759Z" fill="#7E4899"/>
        <path d="M431.62 427.759L330.038 682.137C308.215 673.161 287.535 661.319 268.557 646.841L431.62 427.759Z" fill="#913E7C"/>
        <path d="M431.595 428.011L162.02 394.096C164.931 369.795 171.03 346.116 180.077 323.657L431.595 428.011Z" fill="#DB6135"/>
        <path d="M431.598 428.01L180.08 323.656C188.845 301.898 200.379 281.285 214.464 262.361L431.598 428.01Z" fill="#E5803D"/>
        <path d="M431.517 427.898L681.301 320.992C672.243 299.475 660.552 279.301 646.571 260.912L431.517 427.898Z" fill="#89D63D"/>
        <path d="M431.517 427.898L646.571 260.912C631.696 241.348 614.228 223.805 594.581 208.816L431.517 427.898Z" fill="#9ED641"/>
        <path d="M431.517 427.898L325.005 174.901C303.361 184.165 283.104 196.196 264.696 210.632L431.517 427.898Z" fill="#F2A948"/>
        <path d="M431.517 427.898L264.695 210.632C245.813 225.44 228.876 242.776 214.383 262.249L431.517 427.898Z" fill="#ED9B44"/>
        <path d="M431.517 427.897L681.301 320.991C691.338 344.832 697.954 369.87 701.042 395.352L431.517 427.897Z" fill="#70D739"/>
        <path d="M431.519 427.897L701.044 395.351C703.709 417.337 703.749 439.652 701.094 461.812L431.519 427.897Z" fill="#6BC059"/>
        <path d="M431.519 427.897L325.007 174.9C346.93 165.517 369.89 159.139 393.285 155.852L431.519 427.897Z" fill="#F6B74C"/>
        <path d="M431.519 427.897L464.169 155.343C440.509 152.366 416.68 152.564 393.285 155.852L431.519 427.897Z" fill="#FFD453"/>
        <path d="M431.407 427.976L464.057 155.421C488.01 158.435 511.362 164.648 533.528 173.821L431.407 427.976Z" fill="#E5D54E"/>
        <path d="M431.407 427.976L533.528 173.821C555.153 182.77 575.649 194.535 594.471 208.894L431.407 427.976Z" fill="#CBD549"/>
        <path d="M431.439 427.785L701.014 461.699C698.136 485.721 692.144 509.134 683.268 531.363L431.439 427.785Z" fill="#66AB75"/>
        <path d="M431.438 427.784L683.267 531.362C674.464 553.406 662.824 574.285 648.572 593.433L431.438 427.784Z" fill="#61988F"/>
        <path d="M431.517 427.898L181.733 534.804C190.922 556.631 202.82 577.076 217.069 595.678L431.517 427.898Z" fill="#B42C44"/>
        <path d="M431.519 427.897L217.071 595.677C231.814 614.922 249.074 632.193 268.455 646.979L431.519 427.897Z" fill="#A23660"/>
        <path d="M431.519 427.897L538.03 680.894C559.856 671.553 580.271 659.397 598.803 644.799L431.519 427.897Z" fill="#5873C0"/>
        <path d="M431.519 427.897L598.803 644.799C617.499 630.072 634.278 612.86 648.653 593.546L431.519 427.897Z" fill="#5C84A9"/>
      </g>
      
      <!-- Capa interior (colores más vibrantes) -->
      <g id="horas-interior">
        <path d="M431.985 427.9L182.199 534.807C172.851 512.601 166.47 489.357 163.143 465.683L431.985 427.9Z" fill="#B12E4F"/>
        <path d="M431.985 427.9L163.143 465.683C159.816 442.009 159.542 417.906 162.408 393.985L431.985 427.9Z" fill="#C72225"/>
        <path d="M432.089 427.761L538.601 680.76C516.678 690.143 493.717 696.521 470.323 699.809L432.089 427.761Z" fill="#2F64C2"/>
        <path d="M432.089 427.761L470.323 699.809C446.928 703.097 423.099 703.295 399.438 700.318L432.089 427.761Z" fill="#474BD0"/>
        <path d="M432.088 427.761L399.438 700.318C375.679 697.329 352.511 691.192 330.506 682.141L432.088 427.761Z" fill="#5B49C1"/>
        <path d="M432.088 427.761L330.506 682.141C308.682 673.165 288.002 661.323 269.024 646.845L432.088 427.761Z" fill="#7047B2"/>
        <path d="M432.064 428.013L162.487 394.098C165.398 369.797 171.496 346.117 180.544 323.658L432.064 428.013Z" fill="#D2392B"/>
        <path d="M432.064 428.013L180.544 323.658C189.31 301.9 200.843 281.287 214.928 262.363L432.064 428.013Z" fill="#DB4F31"/>
        <path d="M431.985 427.9L681.771 320.993C672.713 299.475 661.022 279.301 647.041 260.913L431.985 427.9Z" fill="#B3D04A"/>
        <path d="M431.985 427.9L647.041 260.913C632.166 241.348 614.698 223.805 595.05 208.816L431.985 427.9Z" fill="#FFD864"/>
        <path d="M431.985 427.9L325.473 174.901C303.828 184.165 283.571 196.197 265.163 210.632L431.985 427.9Z" fill="#EE9365"/>
        <path d="M431.985 427.9L265.163 210.632C246.281 225.44 229.344 242.777 214.85 262.25L431.985 427.9Z" fill="#E56537"/>
        <path d="M431.985 427.9L681.771 320.993C691.808 344.833 698.424 369.872 701.513 395.354L431.985 427.9Z" fill="#89CC47"/>
        <path d="M431.985 427.9L701.513 395.354C704.178 417.339 704.217 439.655 701.562 461.815L431.985 427.9Z" fill="#5BC744"/>
        <path d="M431.985 427.9L325.473 174.901C347.396 165.518 370.356 159.14 393.751 155.852L431.985 427.9Z" fill="#F6C294"/>
        <path d="M431.985 427.899L464.636 155.343C440.975 152.366 417.146 152.564 393.751 155.852L431.985 427.899Z" fill="#FFF0C2"/>
        <path d="M431.874 427.979L464.524 155.422C488.477 158.435 511.829 164.649 533.996 173.821L431.874 427.979Z" fill="#FAE29A"/>
        <path d="M431.873 427.979L533.996 173.822C555.62 182.77 576.116 194.536 594.938 208.895L431.873 427.979Z" fill="#FDDD7C"/>
        <path d="M431.907 427.786L701.484 461.702C698.606 485.723 692.614 509.137 683.738 531.365L431.907 427.786Z" fill="#3EB764"/>
        <path d="M431.907 427.786L683.738 531.365C674.935 553.409 663.295 574.288 649.042 593.436L431.907 427.786Z" fill="#20A685"/>
        <path d="M431.985 427.9L182.199 534.807C191.389 556.634 203.287 577.08 217.536 595.681L431.985 427.9Z" fill="#993A7C"/>
        <path d="M431.985 427.9L217.536 595.681C232.279 614.926 249.539 632.197 268.92 646.983L431.985 427.9Z" fill="#8445A4"/>
        <path d="M431.985 427.9L538.498 680.899C560.324 671.557 580.739 659.401 599.27 644.803L431.985 427.9Z" fill="#1A7AB6"/>
        <path d="M431.985 427.9L599.27 644.803C617.967 630.076 634.745 612.864 649.121 593.55L431.985 427.9Z" fill="#0194A7"/>
      </g>
    </g>

    <!-- ==================== DISCO CENTRAL NEGRO ==================== -->
    <g id="disco-central">
      <g filter="url(#inner-shadow-disc)">
        <path d="M433.864 664.139C305.282 664.139 201.045 559.903 201.045 431.321C201.045 302.739 305.282 198.502 433.864 198.502C562.446 198.502 666.682 302.739 666.682 431.321C666.682 559.903 562.446 664.139 433.864 664.139Z" fill="url(#grad-central-disc)"/>
      </g>
      <path d="M201.641 431.32C201.641 303.068 305.611 199.098 433.864 199.098C562.117 199.098 666.086 303.068 666.086 431.32C666.086 559.573 562.117 663.543 433.864 663.543C305.611 663.543 201.641 559.573 201.641 431.32Z" stroke="url(#grad-central-stroke)" stroke-width="1.19172"/>
    </g>

    <!-- ==================== YIN-YANG ==================== -->
    <g id="yin-yang">
      <!-- Parte clara (Yang) -->
      <path fill-rule="evenodd" clip-rule="evenodd" d="M575.123 428.704C575.123 349.244 510.708 284.828 431.247 284.828C391.517 284.828 359.309 317.036 359.309 356.766C359.309 396.497 391.517 428.704 431.247 428.704C470.977 428.704 503.185 460.912 503.185 500.643C503.185 540.373 470.977 572.581 431.247 572.581C510.708 572.581 575.123 508.165 575.123 428.704ZM400.416 500.643C400.416 483.615 414.22 469.812 431.247 469.812C448.274 469.812 462.078 483.615 462.078 500.643C462.078 517.67 448.274 531.473 431.247 531.473C414.22 531.473 400.416 517.67 400.416 500.643Z" fill="url(#grad-yin-light)"/>
      
      <!-- Punto oscuro en Yang -->
      <path fill-rule="evenodd" clip-rule="evenodd" d="M400.416 500.642C400.416 483.615 414.22 469.812 431.247 469.812C448.274 469.812 462.078 483.615 462.078 500.642C462.078 517.67 448.274 531.473 431.247 531.473C414.22 531.473 400.416 517.67 400.416 500.642Z" fill="#363E46"/>
      
      <!-- Parte oscura (Yin) -->
      <path d="M503.185 500.643C503.185 460.912 470.977 428.704 431.247 428.704C391.516 428.704 359.308 396.497 359.308 356.766C359.308 317.036 391.516 284.828 431.247 284.828C351.786 284.828 287.37 349.244 287.37 428.704C287.37 508.165 351.786 572.581 431.247 572.581C470.977 572.581 503.185 540.373 503.185 500.643ZM431.247 469.812C414.219 469.812 400.416 483.615 400.416 500.643C400.416 517.67 414.219 531.473 431.247 531.473C448.274 531.473 462.077 517.67 462.077 500.643C462.077 483.615 448.274 469.812 431.247 469.812Z" fill="url(#grad-yin-dark)"/>
      
      <!-- Indicador triangular (hora actual) -->
      <g id="indicador" filter="url(#inner-shadow-indicator)">
        <path d="M456.861 343.541C471.07 369.881 442.072 398.608 415.626 384.39C400.921 376.483 395.493 358.198 403.503 343.549L427.3 300.024C428.615 297.617 432.088 297.617 433.386 300.023L456.861 343.541Z" fill="url(#grad-indicator)"/>
      </g>
      <path d="M415.912 383.867C441.836 397.805 470.263 369.644 456.334 343.823L432.859 300.305C431.785 298.315 428.913 298.315 427.825 300.305L404.027 343.831C396.176 358.191 401.497 376.116 415.912 383.867Z" stroke="url(#grad-indicator-stroke)" stroke-width="1.19172"/>
    </g>

    <!-- ==================== FASE LUNAR ==================== -->
    <g id="fase-lunar">
      <!-- Contenedor circular -->
      <g filter="url(#inner-shadow-moon-container)">
        <rect x="406.871" y="526.495" width="57.5506" height="57.5506" rx="28.7753" transform="rotate(-90 406.871 526.495)" fill="url(#grad-moon-container)"/>
      </g>
      <rect x="407.467" y="525.899" width="56.3589" height="56.3589" rx="28.1794" transform="rotate(-90 407.467 525.899)" stroke="url(#grad-moon-container-stroke)" stroke-width="1.19172"/>
      
      <!-- Luna actual (creciente) -->
      <g id="luna-creciente" filter="url(#inner-shadow-moon)">
        <use href="#moon-waxing-crescent" x="403" y="466" width="64" height="64"/>
      </g>
    </g>

    <!-- ==================== NÚMEROS DE LAS HORAS ==================== -->
    <g id="numeros">
      <!-- Números pequeños del anillo exterior (12-23, 1-11) -->
      <g id="numeros-anillo" fill="url(#grad-number-gold)">
        <!-- 12 (arriba) -->
        <path d="M432.601 148.176V149.488H425.195V148.176H428.155V138.755C428.155 138.472 428.165 138.186 428.184 137.896L425.725 140.008C425.641 140.079 425.558 140.124 425.474 140.143C425.391 140.156 425.314 140.156 425.243 140.143C425.172 140.13 425.105 140.105 425.04 140.066C424.982 140.028 424.937 139.986 424.905 139.941L424.365 139.198L428.483 135.64H429.881V148.176H432.601ZM443.49 147.858C443.676 147.858 443.824 147.913 443.933 148.022C444.042 148.131 444.097 148.273 444.097 148.446V149.488H434.878V148.899C434.878 148.777 434.904 148.652 434.955 148.523C435.007 148.395 435.087 148.276 435.196 148.167L439.623 143.721C439.989 143.348 440.323 142.991 440.625 142.651C440.928 142.303 441.185 141.956 441.397 141.609C441.609 141.262 441.773 140.912 441.889 140.558C442.004 140.198 442.062 139.815 442.062 139.41C442.062 139.005 441.998 138.652 441.869 138.35C441.741 138.041 441.564 137.787 441.339 137.588C441.121 137.388 440.86 137.241 440.558 137.144C440.256 137.041 439.931 136.99 439.584 136.99C439.23 136.99 438.906 137.041 438.61 137.144C438.314 137.247 438.051 137.392 437.819 137.578C437.594 137.758 437.405 137.973 437.25 138.224C437.096 138.475 436.987 138.751 436.922 139.054C436.845 139.279 436.739 139.43 436.604 139.507C436.476 139.578 436.292 139.597 436.055 139.565L435.158 139.41C435.248 138.78 435.421 138.224 435.678 137.742C435.942 137.253 436.27 136.845 436.662 136.517C437.061 136.189 437.514 135.942 438.022 135.775C438.53 135.601 439.079 135.514 439.671 135.514C440.256 135.514 440.802 135.601 441.31 135.775C441.818 135.948 442.258 136.202 442.631 136.537C443.004 136.864 443.297 137.266 443.509 137.742C443.721 138.218 443.827 138.758 443.827 139.362C443.827 139.876 443.75 140.355 443.596 140.799C443.441 141.236 443.232 141.654 442.969 142.053C442.705 142.451 442.4 142.84 442.053 143.219C441.712 143.599 441.349 143.981 440.963 144.367L437.318 148.089C437.575 148.019 437.835 147.964 438.099 147.925C438.363 147.88 438.616 147.858 438.861 147.858H443.49Z"/>
      </g>
      
      <!-- Número grande central "12" -->
      <path id="numero-central-12" d="M431.115 185.736V188.031H418.154V185.736H423.335V169.248C423.335 168.753 423.352 168.253 423.386 167.746L419.082 171.442C418.936 171.566 418.79 171.645 418.644 171.678C418.497 171.701 418.362 171.701 418.239 171.678C418.115 171.656 417.997 171.611 417.884 171.543C417.783 171.476 417.704 171.403 417.648 171.324L416.703 170.025L423.909 163.797H426.356V185.736H431.115ZM450.171 185.179C450.497 185.179 450.756 185.275 450.947 185.466C451.138 185.657 451.234 185.905 451.234 186.209V188.031H435.1V187.002C435.1 186.788 435.145 186.569 435.235 186.344C435.325 186.119 435.466 185.91 435.657 185.719L443.403 177.939C444.045 177.287 444.63 176.662 445.158 176.066C445.687 175.459 446.137 174.851 446.508 174.244C446.88 173.636 447.167 173.023 447.369 172.404C447.572 171.774 447.673 171.105 447.673 170.396C447.673 169.687 447.56 169.068 447.335 168.539C447.11 167.999 446.801 167.555 446.407 167.206C446.025 166.858 445.569 166.599 445.04 166.43C444.512 166.25 443.943 166.16 443.336 166.16C442.717 166.16 442.149 166.25 441.631 166.43C441.114 166.61 440.653 166.863 440.248 167.189C439.854 167.504 439.522 167.881 439.252 168.32C438.982 168.759 438.791 169.243 438.678 169.771C438.543 170.165 438.357 170.43 438.121 170.565C437.896 170.688 437.576 170.722 437.159 170.666L435.59 170.396C435.747 169.293 436.051 168.32 436.501 167.476C436.962 166.621 437.536 165.907 438.222 165.333C438.92 164.759 439.713 164.326 440.602 164.034C441.491 163.73 442.453 163.578 443.488 163.578C444.512 163.578 445.468 163.73 446.357 164.034C447.245 164.337 448.016 164.782 448.669 165.367C449.321 165.941 449.833 166.644 450.204 167.476C450.576 168.309 450.761 169.254 450.761 170.311C450.761 171.211 450.626 172.05 450.356 172.826C450.086 173.591 449.721 174.322 449.259 175.02C448.798 175.717 448.264 176.398 447.656 177.062C447.06 177.726 446.424 178.395 445.749 179.07L439.37 185.584C439.82 185.46 440.276 185.365 440.737 185.297C441.198 185.219 441.643 185.179 442.07 185.179H450.171Z" fill="#363E46"/>
      
      <!-- Número "0" abajo -->
      <path id="numero-0" d="M439.347 680.823C439.347 682.938 439.116 684.772 438.655 686.325C438.205 687.866 437.586 689.143 436.798 690.156C436.011 691.168 435.077 691.922 433.997 692.417C432.928 692.912 431.78 693.16 430.554 693.16C429.317 693.16 428.163 692.912 427.095 692.417C426.037 691.922 425.114 691.168 424.327 690.156C423.539 689.143 422.921 687.866 422.471 686.325C422.021 684.772 421.796 682.938 421.796 680.823C421.796 678.708 422.021 676.874 422.471 675.322C422.921 673.769 423.539 672.487 424.327 671.474C425.114 670.45 426.037 669.691 427.095 669.196C428.163 668.701 429.317 668.453 430.554 668.453C431.78 668.453 432.928 668.701 433.997 669.196C435.077 669.691 436.011 670.45 436.798 671.474C437.586 672.487 438.205 673.769 438.655 675.322C439.116 676.874 439.347 678.708 439.347 680.823ZM436.224 680.823C436.224 678.978 436.067 677.431 435.752 676.182C435.448 674.922 435.032 673.91 434.503 673.145C433.986 672.38 433.384 671.834 432.697 671.508C432.011 671.17 431.297 671.002 430.554 671.002C429.812 671.002 429.097 671.17 428.411 671.508C427.725 671.834 427.123 672.38 426.605 673.145C426.088 673.91 425.671 674.922 425.356 676.182C425.053 677.431 424.901 678.978 424.901 680.823C424.901 682.668 425.053 684.215 425.356 685.464C425.671 686.713 426.088 687.72 426.605 688.485C427.123 689.25 427.725 689.801 428.411 690.139C429.097 690.465 429.812 690.628 430.554 690.628C431.297 690.628 432.011 690.465 432.697 690.139C433.384 689.801 433.986 689.25 434.503 688.485C435.032 687.72 435.448 686.713 435.752 685.464C436.067 684.215 436.224 682.668 436.224 680.823Z" fill="#ECEEF3"/>
    </g>
  </g>
</svg>
